<svg version="1.1" viewBox="0.0 0.0 1536.0 864.0" fill="none" stroke="none" stroke-linecap="square" stroke-miterlimit="10" xmlns:xlink="http://www.w3.org/1999/xlink" xmlns="http://www.w3.org/2000/svg"><clipPath id="g2e8e38aeafa_0_0.0"><path d="m0 0l1536.0 0l0 864.0l-1536.0 0l0 -864.0z" clip-rule="nonzero"/></clipPath><g clip-path="url(#g2e8e38aeafa_0_0.0)"><path fill="#ffffff" d="m0 0l1536.0 0l0 864.0l-1536.0 0z" fill-rule="evenodd"/><path fill="#4a86e8" d="m423.66666 98.50088l0 0c0 -31.815086 64.47101 -57.6063 144.00003 -57.6063l0 0c79.52899 0 144.0 25.791214 144.0 57.6063l0 0c0 31.815071 -64.47101 57.6063 -144.0 57.6063l0 0c-79.52902 0 -144.00003 -25.79123 -144.00003 -57.6063z" fill-rule="evenodd"/><path stroke="#4a86e8" stroke-width="1.0" stroke-linejoin="round" stroke-linecap="butt" d="m423.66666 98.50088l0 0c0 -31.815086 64.47101 -57.6063 144.00003 -57.6063l0 0c79.52899 0 144.0 25.791214 144.0 57.6063l0 0c0 31.815071 -64.47101 57.6063 -144.0 57.6063l0 0c-79.52902 0 -144.00003 -25.79123 -144.00003 -57.6063z" fill-rule="evenodd"/><path fill="#ffd966" d="m12.989501 345.60675l0 0c0 -31.815094 69.84358 -57.606323 156.0 -57.606323l0 0c86.15642 0 156.0 25.79123 156.0 57.606323l0 0c0 31.815063 -69.84358 57.606293 -156.0 57.606293l0 0c-86.15642 0 -156.0 -25.79123 -156.0 -57.606293z" fill-rule="evenodd"/><path stroke="#ffd966" stroke-width="1.0" stroke-linejoin="round" stroke-linecap="butt" d="m12.989501 345.60675l0 0c0 -31.815094 69.84358 -57.606323 156.0 -57.606323l0 0c86.15642 0 156.0 25.79123 156.0 57.606323l0 0c0 31.815063 -69.84358 57.606293 -156.0 57.606293l0 0c-86.15642 0 -156.0 -25.79123 -156.0 -57.606293z" fill-rule="evenodd"/><path fill="#4a86e8" d="m347.90552 345.6076l0 0c0 -31.815063 70.91528 -57.606293 158.3937 -57.606293l0 0c87.478424 0 158.3937 25.79123 158.3937 57.606293l0 0c0 31.815094 -70.91528 57.606293 -158.3937 57.606293l0 0c-87.478424 0 -158.3937 -25.791199 -158.3937 -57.606293z" fill-rule="evenodd"/><path stroke="#4a86e8" stroke-width="1.0" stroke-linejoin="round" stroke-linecap="butt" d="m347.90552 345.6076l0 0c0 -31.815063 70.91528 -57.606293 158.3937 -57.606293l0 0c87.478424 0 158.3937 25.79123 158.3937 57.606293l0 0c0 31.815094 -70.91528 57.606293 -158.3937 57.606293l0 0c-87.478424 0 -158.3937 -25.791199 -158.3937 -57.606293z" fill-rule="evenodd"/><path fill="#4a86e8" d="m781.6483 345.6063l0 0c0 -31.815063 70.91528 -57.606293 158.39368 -57.606293l0 0c87.47839 0 158.39368 25.79123 158.39368 57.606293l0 0c0 31.815094 -70.91528 57.606293 -158.39368 57.606293l0 0c-87.47839 0 -158.39368 -25.791199 -158.39368 -57.606293z" fill-rule="evenodd"/><path stroke="#4a86e8" stroke-width="1.0" stroke-linejoin="round" stroke-linecap="butt" d="m781.6483 345.6063l0 0c0 -31.815063 70.91528 -57.606293 158.39368 -57.606293l0 0c87.47839 0 158.39368 25.79123 158.39368 57.606293l0 0c0 31.815094 -70.91528 57.606293 -158.39368 57.606293l0 0c-87.47839 0 -158.39368 -25.791199 -158.39368 -57.606293z" fill-rule="evenodd"/><path fill="#4a86e8" d="m574.2441 561.6063l0 0c0 -31.815125 64.47101 -57.606323 144.0 -57.606323l0 0c79.52899 0 144.0 25.791199 144.0 57.606323l0 0c0 31.815063 -64.47101 57.606262 -144.0 57.606262l0 0c-79.52899 0 -144.0 -25.791199 -144.0 -57.606262z" fill-rule="evenodd"/><path stroke="#4a86e8" stroke-width="1.0" stroke-linejoin="round" stroke-linecap="butt" d="m574.2441 561.6063l0 0c0 -31.815125 64.47101 -57.606323 144.0 -57.606323l0 0c79.52899 0 144.0 25.791199 144.0 57.606323l0 0c0 31.815063 -64.47101 57.606262 -144.0 57.606262l0 0c-79.52899 0 -144.0 -25.791199 -144.0 -57.606262z" fill-rule="evenodd"/><path fill="#980000" d="m583.8505 777.6063l0 0c0 -31.815125 60.170105 -57.606323 134.39374 -57.606323l0 0c74.22357 0 134.39368 25.791199 134.39368 57.606323l0 0c0 31.815063 -60.170105 57.606262 -134.39368 57.606262l0 0c-74.22363 0 -134.39374 -25.791199 -134.39374 -57.606262z" fill-rule="evenodd"/><path stroke="#980000" stroke-width="1.0" stroke-linejoin="round" stroke-linecap="butt" d="m583.8505 777.6063l0 0c0 -31.815125 60.170105 -57.606323 134.39374 -57.606323l0 0c74.22357 0 134.39368 25.791199 134.39368 57.606323l0 0c0 31.815063 -60.170105 57.606262 -134.39368 57.606262l0 0c-74.22363 0 -134.39374 -25.791199 -134.39374 -57.606262z" fill-rule="evenodd"/><path fill="#000000" fill-opacity="0.0" d="m567.6667 156.10718l-288.37796 148.75589" fill-rule="evenodd"/><path stroke="#595959" stroke-width="3.0" stroke-linejoin="round" stroke-linecap="butt" d="m567.6667 156.10718l-272.38092 140.50403" fill-rule="evenodd"/><path fill="#595959" stroke="#595959" stroke-width="3.0" stroke-linecap="butt" d="m293.01413 292.2074l-9.827728 10.645111l14.371033 -1.8374939z" fill-rule="evenodd"/><path fill="#000000" fill-opacity="0.0" d="m567.6667 156.10718l-61.35434 131.90552" fill-rule="evenodd"/><path stroke="#595959" stroke-width="3.0" stroke-linejoin="round" stroke-linecap="butt" d="m567.6667 156.10718l-53.76288 115.584656" fill-rule="evenodd"/><path fill="#595959" stroke="#595959" stroke-width="3.0" stroke-linecap="butt" d="m509.41083 269.60202l-1.2488403 14.434082l10.234741 -10.254395z" fill-rule="evenodd"/><path fill="#000000" fill-opacity="0.0" d="m567.6667 156.10718l260.37793 148.75589" fill-rule="evenodd"/><path stroke="#595959" stroke-width="3.0" stroke-linejoin="round" stroke-linecap="butt" d="m567.6667 156.10718l244.74878 139.82684" fill-rule="evenodd"/><path fill="#595959" stroke="#595959" stroke-width="3.0" stroke-linecap="butt" d="m809.95734 300.23654l14.279236 2.4509583l-9.363098 -11.05603z" fill-rule="evenodd"/><path fill="#ffd966" d="m888.6601 561.6063l0 0c0 -31.815125 77.36664 -57.606323 172.80316 -57.606323l0 0c95.43652 0 172.8031 25.791199 172.8031 57.606323l0 0c0 31.815063 -77.36658 57.606262 -172.8031 57.606262l0 0c-95.43652 0 -172.80316 -25.791199 -172.80316 -57.606262z" fill-rule="evenodd"/><path stroke="#ffd966" stroke-width="1.0" stroke-linejoin="round" stroke-linecap="butt" d="m888.6601 561.6063l0 0c0 -31.815125 77.36664 -57.606323 172.80316 -57.606323l0 0c95.43652 0 172.8031 25.791199 172.8031 57.606323l0 0c0 31.815063 -77.36658 57.606262 -172.8031 57.606262l0 0c-95.43652 0 -172.80316 -25.791199 -172.80316 -57.606262z" fill-rule="evenodd"/><path fill="#980000" d="m1249.3779 561.6063l0 0c0 -31.815125 60.170166 -57.606323 134.39368 -57.606323l0 0c74.22363 0 134.3938 25.791199 134.3938 57.606323l0 0c0 31.815063 -60.170166 57.606262 -134.3938 57.606262l0 0c-74.22351 0 -134.39368 -25.791199 -134.39368 -57.606262z" fill-rule="evenodd"/><path stroke="#980000" stroke-width="1.0" stroke-linejoin="round" stroke-linecap="butt" d="m1249.3779 561.6063l0 0c0 -31.815125 60.170166 -57.606323 134.39368 -57.606323l0 0c74.22363 0 134.3938 25.791199 134.3938 57.606323l0 0c0 31.815063 -60.170166 57.606262 -134.3938 57.606262l0 0c-74.22351 0 -134.39368 -25.791199 -134.39368 -57.606262z" fill-rule="evenodd"/><path fill="#000000" fill-opacity="0.0" d="m940.042 403.2126l-221.79529 100.787415" fill-rule="evenodd"/><path stroke="#595959" stroke-width="3.0" stroke-linejoin="round" stroke-linecap="butt" d="m940.042 403.2126l-205.4079 93.34073" fill-rule="evenodd"/><path fill="#595959" stroke="#595959" stroke-width="3.0" stroke-linecap="butt" d="m732.5841 492.04202l-10.3446045 10.143585l14.44458 -1.1210327z" fill-rule="evenodd"/><path fill="#000000" fill-opacity="0.0" d="m940.042 403.2126l121.41736 100.787415" fill-rule="evenodd"/><path stroke="#595959" stroke-width="3.0" stroke-linejoin="round" stroke-linecap="butt" d="m940.042 403.2126l107.56726 89.29062" fill-rule="evenodd"/><path fill="#595959" stroke="#595959" stroke-width="3.0" stroke-linecap="butt" d="m1044.4443 496.31598l13.640381 4.8828125l-7.310547 -12.508331z" fill-rule="evenodd"/><path fill="#000000" fill-opacity="0.0" d="m940.042 403.2126l348.69287 117.66931" fill-rule="evenodd"/><path stroke="#595959" stroke-width="3.0" stroke-linejoin="round" stroke-linecap="butt" d="m940.042 403.2126l331.63794 111.91394" fill-rule="evenodd"/><path fill="#595959" stroke="#595959" stroke-width="3.0" stroke-linecap="butt" d="m1270.0955 519.8216l14.484009 -0.34197998l-11.315186 -9.048157z" fill-rule="evenodd"/><path fill="#4a86e8" d="m888.6601 777.6063l0 0c0 -31.815125 77.36664 -57.606323 172.80316 -57.606323l0 0c95.43652 0 172.8031 25.791199 172.8031 57.606323l0 0c0 31.815063 -77.36658 57.606262 -172.8031 57.606262l0 0c-95.43652 0 -172.80316 -25.791199 -172.80316 -57.606262z" fill-rule="evenodd"/><path stroke="#4a86e8" stroke-width="1.0" stroke-linejoin="round" stroke-linecap="butt" d="m888.6601 777.6063l0 0c0 -31.815125 77.36664 -57.606323 172.80316 -57.606323l0 0c95.43652 0 172.8031 25.791199 172.8031 57.606323l0 0c0 31.815063 -77.36658 57.606262 -172.8031 57.606262l0 0c-95.43652 0 -172.80316 -25.791199 -172.80316 -57.606262z" fill-rule="evenodd"/><path fill="#000000" fill-opacity="0.0" d="m718.2441 619.2126l0 100.787415" fill-rule="evenodd"/><path stroke="#595959" stroke-width="3.0" stroke-linejoin="round" stroke-linecap="butt" d="m718.2441 619.2126l0 82.787415" fill-rule="evenodd"/><path fill="#595959" stroke="#595959" stroke-width="3.0" stroke-linecap="butt" d="m713.2889 702.0l4.9552 13.614319l4.9552 -13.614319z" fill-rule="evenodd"/><path fill="#000000" fill-opacity="0.0" d="m1061.4633 619.2126l0 100.787415" fill-rule="evenodd"/><path stroke="#595959" stroke-width="3.0" stroke-linejoin="round" stroke-linecap="butt" d="m1061.4633 619.2126l0 82.787415" fill-rule="evenodd"/><path fill="#595959" stroke="#595959" stroke-width="3.0" stroke-linecap="butt" d="m1056.508 702.0l4.9552 13.614319l4.9552 -13.614319z" fill-rule="evenodd"/></g></svg>